<mxfile host="app.diagrams.net" agent="Mozilla/5.0 (Windows NT 10.0; Win64; x64) AppleWebKit/537.36 (KHTML, like Gecko) Chrome/109.0.0.0 Safari/537.36" version="26.2.5" pages="5">
  <diagram name="ligne_champ" id="RlK8Ip3zVJNQRLxdBeNW">
    <mxGraphModel dx="397" dy="218" grid="1" gridSize="10" guides="1" tooltips="1" connect="1" arrows="1" fold="1" page="1" pageScale="1" pageWidth="827" pageHeight="1169" math="1" shadow="0">
      <root>
        <mxCell id="0" />
        <mxCell id="1" parent="0" />
        <mxCell id="Kp1QySsMVmt74hbARyU_-2" value="" style="endArrow=open;html=1;rounded=0;endFill=0;fillColor=#a20025;strokeColor=light-dark(#6F0000,#660000);" edge="1" parent="1">
          <mxGeometry width="50" height="50" relative="1" as="geometry">
            <mxPoint x="280" y="480" as="sourcePoint" />
            <mxPoint x="239" y="450" as="targetPoint" />
          </mxGeometry>
        </mxCell>
        <mxCell id="Kp1QySsMVmt74hbARyU_-3" value="$$\overrightarrow{A}$$" style="text;html=1;align=center;verticalAlign=middle;whiteSpace=wrap;rounded=0;fontColor=light-dark(#6F0000,#660000);" vertex="1" parent="1">
          <mxGeometry x="240" y="458" width="20" height="30" as="geometry" />
        </mxCell>
        <mxCell id="Kp1QySsMVmt74hbARyU_-4" value="" style="curved=1;endArrow=open;html=1;rounded=0;endFill=0;" edge="1" parent="1">
          <mxGeometry width="50" height="50" relative="1" as="geometry">
            <mxPoint x="280" y="480" as="sourcePoint" />
            <mxPoint x="440" y="420" as="targetPoint" />
            <Array as="points">
              <mxPoint x="230" y="430" />
              <mxPoint x="320" y="360" />
            </Array>
          </mxGeometry>
        </mxCell>
        <mxCell id="Kp1QySsMVmt74hbARyU_-5" value="" style="endArrow=open;html=1;rounded=0;endFill=0;fillColor=#a20025;strokeColor=light-dark(#6F0000,#660000);" edge="1" parent="1">
          <mxGeometry width="50" height="50" relative="1" as="geometry">
            <mxPoint x="254" y="440" as="sourcePoint" />
            <mxPoint x="250" y="400" as="targetPoint" />
          </mxGeometry>
        </mxCell>
        <mxCell id="Kp1QySsMVmt74hbARyU_-6" value="$$\overrightarrow{A}$$" style="text;html=1;align=center;verticalAlign=middle;whiteSpace=wrap;rounded=0;fontColor=light-dark(#6F0000,#660000);" vertex="1" parent="1">
          <mxGeometry x="230" y="406" width="20" height="30" as="geometry" />
        </mxCell>
        <mxCell id="Kp1QySsMVmt74hbARyU_-7" value="$$\overrightarrow{A}$$" style="text;html=1;align=center;verticalAlign=middle;whiteSpace=wrap;rounded=0;fontColor=light-dark(#6F0000,#660000);" vertex="1" parent="1">
          <mxGeometry x="264" y="363" width="20" height="30" as="geometry" />
        </mxCell>
        <mxCell id="Kp1QySsMVmt74hbARyU_-8" value="" style="endArrow=open;html=1;rounded=0;endFill=0;fillColor=#a20025;strokeColor=light-dark(#6F0000,#660000);" edge="1" parent="1">
          <mxGeometry width="50" height="50" relative="1" as="geometry">
            <mxPoint x="269" y="400" as="sourcePoint" />
            <mxPoint x="299" y="370" as="targetPoint" />
          </mxGeometry>
        </mxCell>
        <mxCell id="Kp1QySsMVmt74hbARyU_-9" value="" style="endArrow=open;html=1;rounded=0;endFill=0;fillColor=#a20025;strokeColor=light-dark(#6F0000,#660000);" edge="1" parent="1">
          <mxGeometry width="50" height="50" relative="1" as="geometry">
            <mxPoint x="318" y="382" as="sourcePoint" />
            <mxPoint x="358" y="382" as="targetPoint" />
          </mxGeometry>
        </mxCell>
        <mxCell id="Kp1QySsMVmt74hbARyU_-10" value="$$\overrightarrow{A}$$" style="text;html=1;align=center;verticalAlign=middle;whiteSpace=wrap;rounded=0;fontColor=light-dark(#6F0000,#660000);" vertex="1" parent="1">
          <mxGeometry x="324" y="356" width="20" height="30" as="geometry" />
        </mxCell>
        <mxCell id="Kp1QySsMVmt74hbARyU_-11" value="" style="endArrow=open;html=1;rounded=0;endFill=0;fillColor=#a20025;strokeColor=light-dark(#6F0000,#660000);" edge="1" parent="1">
          <mxGeometry width="50" height="50" relative="1" as="geometry">
            <mxPoint x="386" y="396" as="sourcePoint" />
            <mxPoint x="424" y="411" as="targetPoint" />
          </mxGeometry>
        </mxCell>
        <mxCell id="Kp1QySsMVmt74hbARyU_-13" value="$$\overrightarrow{A}$$" style="text;html=1;align=center;verticalAlign=middle;whiteSpace=wrap;rounded=0;fontColor=light-dark(#6F0000,#660000);" vertex="1" parent="1">
          <mxGeometry x="397" y="376" width="20" height="30" as="geometry" />
        </mxCell>
      </root>
    </mxGraphModel>
  </diagram>
  <diagram id="8HCGUnNx8XWxDMMXP8I7" name="tube_champ">
    <mxGraphModel dx="680" dy="374" grid="1" gridSize="10" guides="1" tooltips="1" connect="1" arrows="1" fold="1" page="1" pageScale="1" pageWidth="827" pageHeight="1169" math="1" shadow="0">
      <root>
        <mxCell id="0" />
        <mxCell id="1" parent="0" />
        <mxCell id="vpssn10frI9yW2K2WNAO-9" value="" style="group;rotation=-10;" vertex="1" connectable="0" parent="1">
          <mxGeometry x="320" y="400" width="200" height="120" as="geometry" />
        </mxCell>
        <mxCell id="vpssn10frI9yW2K2WNAO-2" value="" style="shape=cylinder3;whiteSpace=wrap;html=1;boundedLbl=1;backgroundOutline=1;size=15;rotation=-100;fillColor=none;" vertex="1" parent="vpssn10frI9yW2K2WNAO-9">
          <mxGeometry x="40" y="-40" width="120" height="200" as="geometry" />
        </mxCell>
        <mxCell id="vpssn10frI9yW2K2WNAO-4" value="" style="ellipse;whiteSpace=wrap;html=1;fillColor=none;dashed=1;dashPattern=12 12;rotation=-10;" vertex="1" parent="vpssn10frI9yW2K2WNAO-9">
          <mxGeometry x="169" y="-15" width="30" height="120" as="geometry" />
        </mxCell>
        <mxCell id="vpssn10frI9yW2K2WNAO-5" value="" style="endArrow=none;html=1;rounded=0;entryX=1;entryY=0.5;entryDx=0;entryDy=0;exitX=0.5;exitY=0.148;exitDx=0;exitDy=0;exitPerimeter=0;" edge="1" parent="vpssn10frI9yW2K2WNAO-9" source="vpssn10frI9yW2K2WNAO-2" target="vpssn10frI9yW2K2WNAO-4">
          <mxGeometry width="50" height="50" relative="1" as="geometry">
            <mxPoint x="76" y="95" as="sourcePoint" />
            <mxPoint x="116" y="37" as="targetPoint" />
          </mxGeometry>
        </mxCell>
        <mxCell id="vpssn10frI9yW2K2WNAO-6" value="" style="endArrow=none;html=1;rounded=0;entryX=1;entryY=0.5;entryDx=0;entryDy=0;exitX=0.5;exitY=0.148;exitDx=0;exitDy=0;exitPerimeter=0;" edge="1" parent="vpssn10frI9yW2K2WNAO-9">
          <mxGeometry width="50" height="50" relative="1" as="geometry">
            <mxPoint x="24" y="43" as="sourcePoint" />
            <mxPoint x="191" y="13" as="targetPoint" />
          </mxGeometry>
        </mxCell>
        <mxCell id="vpssn10frI9yW2K2WNAO-7" value="" style="endArrow=none;html=1;rounded=0;entryX=1;entryY=0.5;entryDx=0;entryDy=0;exitX=0.5;exitY=0.148;exitDx=0;exitDy=0;exitPerimeter=0;" edge="1" parent="vpssn10frI9yW2K2WNAO-9">
          <mxGeometry width="50" height="50" relative="1" as="geometry">
            <mxPoint x="34" y="112" as="sourcePoint" />
            <mxPoint x="201" y="83" as="targetPoint" />
          </mxGeometry>
        </mxCell>
        <mxCell id="gDhJQp0_aWT0JbPa_VS0-1" value="" style="endArrow=open;html=1;rounded=0;endFill=0;fillColor=#a20025;strokeColor=light-dark(#6F0000,#660000);" edge="1" parent="vpssn10frI9yW2K2WNAO-9">
          <mxGeometry width="50" height="50" relative="1" as="geometry">
            <mxPoint x="51" y="38" as="sourcePoint" />
            <mxPoint x="90" y="31" as="targetPoint" />
          </mxGeometry>
        </mxCell>
        <mxCell id="gDhJQp0_aWT0JbPa_VS0-2" value="$$\overrightarrow{A}$$" style="text;html=1;align=center;verticalAlign=middle;whiteSpace=wrap;rounded=0;fontColor=light-dark(#6F0000,#660000);" vertex="1" parent="vpssn10frI9yW2K2WNAO-9">
          <mxGeometry x="58" y="8" width="20" height="30" as="geometry" />
        </mxCell>
        <mxCell id="gDhJQp0_aWT0JbPa_VS0-8" value="" style="endArrow=open;html=1;rounded=0;endFill=0;fillColor=#a20025;strokeColor=light-dark(#6F0000,#660000);" edge="1" parent="vpssn10frI9yW2K2WNAO-9">
          <mxGeometry width="50" height="50" relative="1" as="geometry">
            <mxPoint x="121" y="56" as="sourcePoint" />
            <mxPoint x="160" y="49" as="targetPoint" />
          </mxGeometry>
        </mxCell>
        <mxCell id="gDhJQp0_aWT0JbPa_VS0-9" value="$$\overrightarrow{A}$$" style="text;html=1;align=center;verticalAlign=middle;whiteSpace=wrap;rounded=0;fontColor=light-dark(#6F0000,#660000);" vertex="1" parent="vpssn10frI9yW2K2WNAO-9">
          <mxGeometry x="128" y="26" width="20" height="30" as="geometry" />
        </mxCell>
        <mxCell id="gDhJQp0_aWT0JbPa_VS0-12" value="" style="endArrow=open;html=1;rounded=0;endFill=0;fillColor=#a20025;strokeColor=light-dark(#6F0000,#660000);" edge="1" parent="vpssn10frI9yW2K2WNAO-9">
          <mxGeometry width="50" height="50" relative="1" as="geometry">
            <mxPoint x="118.5" y="26" as="sourcePoint" />
            <mxPoint x="157.5" y="19" as="targetPoint" />
          </mxGeometry>
        </mxCell>
        <mxCell id="gDhJQp0_aWT0JbPa_VS0-13" value="$$\overrightarrow{A}$$" style="text;html=1;align=center;verticalAlign=middle;whiteSpace=wrap;rounded=0;fontColor=light-dark(#6F0000,#660000);" vertex="1" parent="vpssn10frI9yW2K2WNAO-9">
          <mxGeometry x="125.5" y="-4" width="20" height="30" as="geometry" />
        </mxCell>
        <mxCell id="gDhJQp0_aWT0JbPa_VS0-4" value="" style="endArrow=open;html=1;rounded=0;endFill=0;fillColor=#a20025;strokeColor=light-dark(#6F0000,#660000);" edge="1" parent="1">
          <mxGeometry width="50" height="50" relative="1" as="geometry">
            <mxPoint x="381" y="467" as="sourcePoint" />
            <mxPoint x="420" y="460" as="targetPoint" />
          </mxGeometry>
        </mxCell>
        <mxCell id="gDhJQp0_aWT0JbPa_VS0-5" value="$$\overrightarrow{A}$$" style="text;html=1;align=center;verticalAlign=middle;whiteSpace=wrap;rounded=0;fontColor=light-dark(#6F0000,#660000);" vertex="1" parent="1">
          <mxGeometry x="388" y="437" width="20" height="30" as="geometry" />
        </mxCell>
        <mxCell id="gDhJQp0_aWT0JbPa_VS0-6" value="" style="endArrow=open;html=1;rounded=0;endFill=0;fillColor=#a20025;strokeColor=light-dark(#6F0000,#660000);" edge="1" parent="1">
          <mxGeometry width="50" height="50" relative="1" as="geometry">
            <mxPoint x="387" y="506" as="sourcePoint" />
            <mxPoint x="426" y="499" as="targetPoint" />
          </mxGeometry>
        </mxCell>
        <mxCell id="gDhJQp0_aWT0JbPa_VS0-7" value="$$\overrightarrow{A}$$" style="text;html=1;align=center;verticalAlign=middle;whiteSpace=wrap;rounded=0;fontColor=light-dark(#6F0000,#660000);" vertex="1" parent="1">
          <mxGeometry x="394" y="476" width="20" height="30" as="geometry" />
        </mxCell>
        <mxCell id="gDhJQp0_aWT0JbPa_VS0-10" value="" style="endArrow=open;html=1;rounded=0;endFill=0;fillColor=#a20025;strokeColor=light-dark(#6F0000,#660000);" edge="1" parent="1">
          <mxGeometry width="50" height="50" relative="1" as="geometry">
            <mxPoint x="446" y="496" as="sourcePoint" />
            <mxPoint x="485" y="489" as="targetPoint" />
          </mxGeometry>
        </mxCell>
        <mxCell id="gDhJQp0_aWT0JbPa_VS0-11" value="$$\overrightarrow{A}$$" style="text;html=1;align=center;verticalAlign=middle;whiteSpace=wrap;rounded=0;fontColor=light-dark(#6F0000,#660000);" vertex="1" parent="1">
          <mxGeometry x="453" y="466" width="20" height="30" as="geometry" />
        </mxCell>
      </root>
    </mxGraphModel>
  </diagram>
  <diagram id="bOcIwWbsl7pvn1XZY04X" name="circulation_elementaire">
    <mxGraphModel dx="571" dy="314" grid="1" gridSize="10" guides="1" tooltips="1" connect="1" arrows="1" fold="1" page="1" pageScale="1" pageWidth="827" pageHeight="1169" math="1" shadow="0">
      <root>
        <mxCell id="0" />
        <mxCell id="1" parent="0" />
        <mxCell id="QODVIU8lrXYvpVW5SxhM-1" value="" style="endArrow=open;html=1;rounded=0;endFill=0;fillColor=#a20025;strokeColor=light-dark(#6F0000,#660000);" edge="1" parent="1">
          <mxGeometry width="50" height="50" relative="1" as="geometry">
            <mxPoint x="360" y="280" as="sourcePoint" />
            <mxPoint x="480" y="200" as="targetPoint" />
          </mxGeometry>
        </mxCell>
        <mxCell id="QODVIU8lrXYvpVW5SxhM-2" value="$$\overrightarrow{A}$$" style="text;html=1;align=center;verticalAlign=middle;whiteSpace=wrap;rounded=0;fontColor=light-dark(#6F0000,#660000);" vertex="1" parent="1">
          <mxGeometry x="392" y="216" width="20" height="30" as="geometry" />
        </mxCell>
        <mxCell id="QODVIU8lrXYvpVW5SxhM-3" value="$$M$$" style="text;html=1;align=center;verticalAlign=middle;whiteSpace=wrap;rounded=0;" vertex="1" parent="1">
          <mxGeometry x="319" y="266" width="60" height="30" as="geometry" />
        </mxCell>
        <mxCell id="QODVIU8lrXYvpVW5SxhM-4" value="$$\overrightarrow{dM}$$" style="text;html=1;align=center;verticalAlign=middle;whiteSpace=wrap;rounded=0;fontColor=default;" vertex="1" parent="1">
          <mxGeometry x="361" y="286" width="20" height="30" as="geometry" />
        </mxCell>
        <mxCell id="QODVIU8lrXYvpVW5SxhM-5" value="" style="endArrow=open;html=1;rounded=0;endFill=0;" edge="1" parent="1">
          <mxGeometry width="50" height="50" relative="1" as="geometry">
            <mxPoint x="359" y="280" as="sourcePoint" />
            <mxPoint x="400" y="300" as="targetPoint" />
          </mxGeometry>
        </mxCell>
      </root>
    </mxGraphModel>
  </diagram>
  <diagram name="circulation" id="7jx0d-TU7nc06RKxnSnE">
    <mxGraphModel dx="985" dy="541" grid="1" gridSize="10" guides="1" tooltips="1" connect="1" arrows="1" fold="1" page="1" pageScale="1" pageWidth="827" pageHeight="1169" math="1" shadow="0">
      <root>
        <mxCell id="mbtIemU2W4JD5h1G9G72-0" />
        <mxCell id="mbtIemU2W4JD5h1G9G72-1" parent="mbtIemU2W4JD5h1G9G72-0" />
        <mxCell id="mbtIemU2W4JD5h1G9G72-2" value="" style="endArrow=open;html=1;rounded=0;endFill=0;fillColor=#a20025;strokeColor=light-dark(#6F0000,#660000);" edge="1" parent="mbtIemU2W4JD5h1G9G72-1">
          <mxGeometry width="50" height="50" relative="1" as="geometry">
            <mxPoint x="360" y="280" as="sourcePoint" />
            <mxPoint x="480" y="200" as="targetPoint" />
          </mxGeometry>
        </mxCell>
        <mxCell id="mbtIemU2W4JD5h1G9G72-3" value="$$\overrightarrow{A}$$" style="text;html=1;align=center;verticalAlign=middle;whiteSpace=wrap;rounded=0;fontColor=light-dark(#6F0000,#660000);" vertex="1" parent="mbtIemU2W4JD5h1G9G72-1">
          <mxGeometry x="392" y="216" width="20" height="30" as="geometry" />
        </mxCell>
        <mxCell id="mbtIemU2W4JD5h1G9G72-4" value="$$M$$" style="text;html=1;align=center;verticalAlign=middle;whiteSpace=wrap;rounded=0;" vertex="1" parent="mbtIemU2W4JD5h1G9G72-1">
          <mxGeometry x="319" y="268" width="60" height="30" as="geometry" />
        </mxCell>
        <mxCell id="mbtIemU2W4JD5h1G9G72-5" value="$$\overrightarrow{dM}$$" style="text;html=1;align=center;verticalAlign=middle;whiteSpace=wrap;rounded=0;fontColor=default;" vertex="1" parent="mbtIemU2W4JD5h1G9G72-1">
          <mxGeometry x="361" y="286" width="20" height="30" as="geometry" />
        </mxCell>
        <mxCell id="mbtIemU2W4JD5h1G9G72-6" value="" style="endArrow=open;html=1;rounded=0;endFill=0;" edge="1" parent="mbtIemU2W4JD5h1G9G72-1">
          <mxGeometry width="50" height="50" relative="1" as="geometry">
            <mxPoint x="359" y="280" as="sourcePoint" />
            <mxPoint x="400" y="300" as="targetPoint" />
          </mxGeometry>
        </mxCell>
        <mxCell id="eMbZqPLJygOqdu2p8kon-1" value="" style="curved=1;endArrow=open;html=1;rounded=0;endFill=0;strokeColor=#7EA6E0;" edge="1" parent="mbtIemU2W4JD5h1G9G72-1">
          <mxGeometry width="50" height="50" relative="1" as="geometry">
            <mxPoint x="310" y="221" as="sourcePoint" />
            <mxPoint x="569" y="247" as="targetPoint" />
            <Array as="points">
              <mxPoint x="339" y="277" />
              <mxPoint x="411" y="293" />
              <mxPoint x="451" y="283" />
              <mxPoint x="509" y="267" />
            </Array>
          </mxGeometry>
        </mxCell>
        <mxCell id="eMbZqPLJygOqdu2p8kon-2" value="$$M_1$$" style="text;html=1;align=center;verticalAlign=middle;whiteSpace=wrap;rounded=0;" vertex="1" parent="mbtIemU2W4JD5h1G9G72-1">
          <mxGeometry x="281" y="216" width="30" height="30" as="geometry" />
        </mxCell>
        <mxCell id="eMbZqPLJygOqdu2p8kon-3" value="$$M_2$$" style="text;html=1;align=center;verticalAlign=middle;whiteSpace=wrap;rounded=0;" vertex="1" parent="mbtIemU2W4JD5h1G9G72-1">
          <mxGeometry x="496" y="260" width="60" height="30" as="geometry" />
        </mxCell>
        <mxCell id="eMbZqPLJygOqdu2p8kon-4" value="" style="ellipse;whiteSpace=wrap;html=1;aspect=fixed;fillColor=#000000;" vertex="1" parent="mbtIemU2W4JD5h1G9G72-1">
          <mxGeometry x="521" y="259" width="5" height="5" as="geometry" />
        </mxCell>
        <mxCell id="eMbZqPLJygOqdu2p8kon-6" value="" style="ellipse;whiteSpace=wrap;html=1;aspect=fixed;fillColor=#000000;" vertex="1" parent="mbtIemU2W4JD5h1G9G72-1">
          <mxGeometry x="311" y="226" width="5" height="5" as="geometry" />
        </mxCell>
        <mxCell id="eMbZqPLJygOqdu2p8kon-8" value="$$\gamma$$" style="text;html=1;align=center;verticalAlign=middle;whiteSpace=wrap;rounded=0;fontColor=#7EA6E0;fontStyle=0" vertex="1" parent="mbtIemU2W4JD5h1G9G72-1">
          <mxGeometry x="432" y="274" width="60" height="30" as="geometry" />
        </mxCell>
      </root>
    </mxGraphModel>
  </diagram>
  <diagram id="bINVy69BoXDm_sl6ZjUg" name="flux_elementaire">
    <mxGraphModel dx="1428" dy="801" grid="1" gridSize="10" guides="1" tooltips="1" connect="1" arrows="1" fold="1" page="1" pageScale="1" pageWidth="827" pageHeight="1169" math="1" shadow="0">
      <root>
        <mxCell id="0" />
        <mxCell id="1" parent="0" />
        <mxCell id="fXxXyN4zMUCnlgTKOZEN-1" value="" style="ellipse;whiteSpace=wrap;html=1;" parent="1" vertex="1">
          <mxGeometry x="300" y="250" width="160" height="50" as="geometry" />
        </mxCell>
        <mxCell id="QnI3IbdfZ0a-EIAB9HYr-1" value="$$d\mathcal{S}$$" style="text;html=1;align=center;verticalAlign=middle;whiteSpace=wrap;rounded=0;fontColor=default;" parent="1" vertex="1">
          <mxGeometry x="460" y="280" width="20" height="30" as="geometry" />
        </mxCell>
        <mxCell id="LQcPct3KSsmjGC5L44d6-1" value="$$M$$" style="text;html=1;align=center;verticalAlign=middle;whiteSpace=wrap;rounded=0;" parent="1" vertex="1">
          <mxGeometry x="338" y="267" width="60" height="30" as="geometry" />
        </mxCell>
        <mxCell id="X0E6nh25nn1glzymq_rA-1" value="" style="ellipse;whiteSpace=wrap;html=1;aspect=fixed;fillColor=#000000;" parent="1" vertex="1">
          <mxGeometry x="379" y="272" width="5" height="5" as="geometry" />
        </mxCell>
        <mxCell id="DlvrisbZeOvzOHtkATLc-1" value="" style="endArrow=open;html=1;rounded=0;endFill=0;" parent="1" edge="1">
          <mxGeometry width="50" height="50" relative="1" as="geometry">
            <mxPoint x="382" y="273" as="sourcePoint" />
            <mxPoint x="383" y="206" as="targetPoint" />
          </mxGeometry>
        </mxCell>
        <mxCell id="DlvrisbZeOvzOHtkATLc-2" value="$$\overrightarrow{d\mathcal{S}}$$" style="text;html=1;align=center;verticalAlign=middle;whiteSpace=wrap;rounded=0;fontColor=default;" parent="1" vertex="1">
          <mxGeometry x="343" y="214" width="46" height="30" as="geometry" />
        </mxCell>
        <mxCell id="fwfciBYq0uFMtHwwnome-1" value="" style="endArrow=open;html=1;rounded=0;endFill=0;fillColor=#a20025;strokeColor=light-dark(#6F0000,#660000);" parent="1" edge="1">
          <mxGeometry width="50" height="50" relative="1" as="geometry">
            <mxPoint x="381" y="277" as="sourcePoint" />
            <mxPoint x="501" y="197" as="targetPoint" />
          </mxGeometry>
        </mxCell>
        <mxCell id="fwfciBYq0uFMtHwwnome-2" value="$$\overrightarrow{A}$$" style="text;html=1;align=center;verticalAlign=middle;whiteSpace=wrap;rounded=0;fontColor=light-dark(#6F0000,#660000);" parent="1" vertex="1">
          <mxGeometry x="446" y="225" width="20" height="30" as="geometry" />
        </mxCell>
      </root>
    </mxGraphModel>
  </diagram>
</mxfile>
